<svg width="72" height="72" viewBox="0 0 72 72" fill="none" xmlns="http://www.w3.org/2000/svg">
<path fill-rule="evenodd" clip-rule="evenodd" d="M36 72C55.8823 72 72 55.8823 72 36C72 16.1177 55.8823 0 36 0C16.1177 0 0 16.1177 0 36C0 55.8823 16.1177 72 36 72ZM47 23.5C47 29.299 42.299 34 36.5 34C30.701 34 26 29.299 26 23.5C26 17.701 30.701 13 36.5 13C42.299 13 47 17.701 47 23.5ZM18.0004 57C18.0001 56.9521 18 56.9042 18 56.8563C18 45.3377 26.2742 36 36.4809 36C46.6877 36 54.9619 45.3377 54.9619 56.8563C54.9619 56.8852 54.9618 56.9141 54.9617 56.9429C54.9616 56.9619 54.9615 56.981 54.9614 57H18.0004Z" fill="white"/>
</svg>
